<svg width="134" height="28" viewBox="0 0 134 28" fill="none" xmlns="http://www.w3.org/2000/svg">
<path d="M17 7.61389C18.4134 6.06352 18.4134 3.55037 17 2C15.5866 3.55037 15.5866 6.06399 17 7.61389Z" fill="#0C8654"/>
<path d="M10.6139 14C9.06358 12.5866 6.55043 12.5866 5.00006 14C6.55043 15.4134 9.06404 15.4134 10.6139 14Z" fill="#0C8654"/>
<path d="M17 20.386C15.5871 21.9364 15.5871 24.4495 17 25.9999C18.413 24.4495 18.413 21.9359 17 20.386Z" fill="#0C8654"/>
<path d="M28.9999 14C27.4496 12.5866 24.9364 12.5866 23.386 14C24.936 15.4134 27.4496 15.4134 28.9999 14Z" fill="#0C8654"/>
<path d="M22.3608 14.792H19.986H17.7916H16.208H11.6392C9.51562 14.792 7.79407 16.5135 7.79407 18.6371V23.2059H12.3628C14.4864 23.2059 16.208 21.4843 16.208 19.3607V16.0467C16.208 15.6095 16.5624 15.2546 17 15.2546C17.4372 15.2546 17.7921 15.609 17.7921 16.0467V19.3607C17.7921 21.4843 19.5136 23.2059 21.6372 23.2059H26.206V18.6371C26.2055 16.5131 24.4844 14.792 22.3608 14.792Z" fill="#19AA6E"/>
<path d="M21.6367 4.79443C19.5131 4.79443 17.7916 6.51598 17.7916 8.63958V11.9536C17.7916 12.3908 17.4372 12.7457 16.9995 12.7457C16.5623 12.7457 16.2075 12.3913 16.2075 11.9536V8.63958C16.2075 6.51598 14.4859 4.79443 12.3623 4.79443H7.79449V9.36318C7.79449 11.4868 9.51604 13.2083 11.6396 13.2083H14.0145H16.2088H17.7925H19.9869H22.3617C24.4853 13.2083 26.2069 11.4868 26.2069 9.36318V4.79443H21.6367Z" fill="#19AA6E"/>
<path opacity="0.2" d="M13.4533 13.2079H11.6392C9.51558 13.2079 7.79449 11.4868 7.79449 9.36318V4.79443H9.60811V9.36318C9.60811 11.4868 11.3297 13.2079 13.4533 13.2079Z" fill="#284028"/>
<path opacity="0.2" d="M20.5468 13.2079H22.3608C24.4844 13.2079 26.2055 11.4868 26.2055 9.36318V4.79443H24.3919V9.36318C24.3919 11.4868 22.6704 13.2079 20.5468 13.2079Z" fill="#284028"/>
<path opacity="0.2" d="M13.4533 14.792H11.6392C9.51558 14.792 7.79449 16.5131 7.79449 18.6367V23.2054H9.60811V18.6367C9.60811 16.5131 11.3297 14.792 13.4533 14.792Z" fill="#284028"/>
<path opacity="0.2" d="M20.5468 14.792H22.3608C24.4844 14.792 26.2055 16.5131 26.2055 18.6367V23.2054H24.3919V18.6367C24.3919 16.5131 22.6704 14.792 20.5468 14.792Z" fill="#284028"/>
<path d="M45.4867 16.2801C45.6544 19.4022 40.5294 20.5605 36.9999 17.673L39.3968 14.8667C41.591 17.1041 43.6289 15.7236 40.9008 14.663C36.5031 12.9543 37.217 9.19957 40.1869 8.51548C42.9911 7.86946 45.2234 10.148 45.2234 10.148L43.1186 12.2671C43.1186 12.2671 40.8997 10.1429 40.5253 11.2045C40.0418 12.5768 45.3252 13.2784 45.4867 16.2801Z" fill="#454545"/>
<path d="M46.1945 8.53601L53.6402 8.68003L53.6083 11.9143L51.269 11.8351L51.3853 19.4454L48.3342 19.5421L48.4556 11.7404L46.0834 11.6602L46.1945 8.53601Z" fill="#454545"/>
<path d="M60.3114 8.74202L62.6414 19.2389L59.2271 19.5341L58.8115 16.1486L57.1615 16.2207L56.678 19.3397L53.2658 18.9508L56.0083 8.65149L60.3114 8.74202ZM58.6017 14.3741L58.1172 10.9167L57.4403 14.3741H58.6017Z" fill="#454545"/>
<path d="M69.7743 14.8461L71.7587 18.1554L69.046 19.5647L67.289 15.8367C67.1367 15.8738 66.9865 15.9077 66.8394 15.9375L67.0092 19.5874L63.8686 19.4896L63.5116 8.79631C65.9743 8.28814 71.8389 7.87253 71.4655 12.2352C71.3626 13.4378 70.6775 14.268 69.7743 14.8461ZM66.5761 13.6312C67.3137 13.5674 68.9555 13.1878 69.1015 12.3309C69.2548 11.4288 67.5071 11.4174 66.4208 11.4452L66.5761 13.6312Z" fill="#454545"/>
<path d="M77.8424 13.366L81.9912 17.3368L79.2795 19.638L76.3909 15.8555L76.3333 19.4796L72.989 19.4395L72.8224 8.65149L76.5031 8.80991L76.465 11.1677L79.4832 8.65149L81.232 10.8827L77.8424 13.366Z" fill="#454545"/>
<path d="M88.9349 8.82296L92.236 8.81885L91.8502 19.0667L88.6088 19.1748L86.5134 14.4921L86.3858 19.29L82.7792 18.9649L83.2308 8.93097L86.5236 8.61414L88.8495 14.095L88.9349 8.82296Z" fill="#454545"/>
<path d="M101.55 16.0138L101.676 19.3664L93.8038 19.3911L93.4787 8.70287L101.234 8.46216L101.162 11.8744L96.5813 11.8949L96.7417 13.1016L99.5501 13.082L99.6159 14.945L96.8611 14.9646L96.9598 16.2525L101.55 16.0138Z" fill="#454545"/>
<path d="M102.46 8.53601L109.906 8.68003L109.874 11.9143L107.535 11.8351L107.651 19.4454L104.6 19.5421L104.721 11.7404L102.349 11.6602L102.46 8.53601Z" fill="#454545"/>
<path d="M118.539 8.4919L118.705 19.2799L115.025 19.1214L115.195 8.45178L118.539 8.4919Z" fill="#454545"/>
<path d="M128.95 14.4214C128.3 20.3745 119.883 19.2913 119.883 19.2913L120.614 8.46317C124.691 8.00232 129.545 8.97854 128.95 14.4214ZM123.51 11.324L123.249 16.1342C123.249 16.1342 125.883 15.6075 126.378 13.7198C126.857 11.8908 124.977 11.1409 123.51 11.324Z" fill="#454545"/>
</svg>
